<svg xmlns="http://www.w3.org/2000/svg" width="76" height="131.248" viewBox="0 0 76 131.248">
  <g id="Group_18722" data-name="Group 18722" transform="translate(-1893 -7376.752)">
    <g id="ANGULAR_icon" data-name="ANGULAR icon" transform="translate(1903.408 7376.752)">
      <g id="Group_30" data-name="Group 30" transform="translate(0 0)">
        <path id="Path_46" data-name="Path 46" d="M211.92,231.966l8.391-3q10.4-3.709,20.8-7.406a1.507,1.507,0,0,1,.932-.035q14.472,5.132,28.931,10.3c.1.036.2.083.343.144-.121,1.072-.242,2.154-.366,3.236q-.523,4.536-1.048,9.071t-1.041,9.072q-.575,5-1.153,10c-.294,2.553-.581,5.107-.9,7.658a.772.772,0,0,1-.388.45q-6.5,3.619-13,7.216-5.643,3.126-11.284,6.257a.931.931,0,0,1-1.043-.01q-11.972-6.654-23.967-13.266a1.39,1.39,0,0,1-.793-1.22c-.37-3.407-.777-6.81-1.168-10.216-.418-3.641-.826-7.283-1.246-10.923s-.853-7.28-1.274-10.92C212.4,236.259,212.165,234.14,211.92,231.966Zm29.69-3.649-18.643,41.791c.263.013.423.026.583.027,1.971,0,3.942-.01,5.913.011a.643.643,0,0,0,.712-.49c1.1-2.8,2.237-5.58,3.344-8.375a.6.6,0,0,1,.661-.472q7.391.02,14.783,0a.606.606,0,0,1,.678.45c1.1,2.8,2.238,5.58,3.338,8.378a.676.676,0,0,0,.756.509c1.953-.022,3.905-.009,5.858-.012.171,0,.342-.021.581-.038Z" transform="translate(-211.92 -221.47)" fill="#b7b7b7"/>
        <path id="Path_47" data-name="Path 47" d="M766.182,693.828l-5.368-12.9-5.364,12.9Z" transform="translate(-731.121 -660.364)" fill="#b7b7b7"/>
        <path id="Path_48" data-name="Path 48" d="M766.182,693.828H755.45l5.364-12.9Z" transform="translate(-731.121 -660.364)" fill="#b7b7b7"/>
      </g>
    </g>
    <text id="ANGULAR" transform="translate(1931 7501)" fill="#797979" font-size="19" font-family="Poppins-Medium, Poppins" font-weight="500"><tspan x="-37.99" y="0">Angular</tspan></text>
  </g>
</svg>
