<svg xmlns="http://www.w3.org/2000/svg" xmlns:xlink="http://www.w3.org/1999/xlink" width="182.799" height="46.436" viewBox="0 0 182.799 46.436">
  <defs>
    <clipPath id="clip-path">
      <rect id="Rectangle_4747" data-name="Rectangle 4747" width="182.799" height="38.127" fill="none"/>
    </clipPath>
  </defs>
  <g id="footer_logo" data-name="footer logo" transform="translate(-2557 945.128)">
    <g id="Group_18181" data-name="Group 18181" transform="translate(2445 -9472.128)">
      <g id="Group_18093" data-name="Group 18093" transform="translate(112 8527)">
        <g id="Group_18086" data-name="Group 18086" transform="translate(0 0)" clip-path="url(#clip-path)">
          <text id="thunderbolt" transform="translate(49.69 28.009)" fill="#fff" font-size="24" font-family="AbeatbyKai, abeatbyKai"><tspan x="0" y="0">thu</tspan><tspan y="0" letter-spacing="-0.023em">n</tspan><tspan y="0">derbolt</tspan></text>
          <path id="Path_98193" data-name="Path 98193" d="M24.133,18.659h9.18A2.619,2.619,0,0,1,36.08,21.1a2.619,2.619,0,0,1-2.767,2.44H29.906s-3.328-.351-3.328,2.546v9.18a2.766,2.766,0,1,1-5.532,0V17.1s.241-3.067-2.455-3.157H14.541a2.619,2.619,0,0,0-2.767,2.439,2.619,2.619,0,0,0,2.767,2.44h3.407" transform="translate(-4.222 -5.001)" fill="none" stroke="#1db954" stroke-linecap="round" stroke-linejoin="round" stroke-width="2"/>
          <circle id="Ellipse_21" data-name="Ellipse 21" cx="18.422" cy="18.422" r="18.422" transform="translate(0.642 0.641)" fill="none" stroke="#1db954" stroke-linecap="round" stroke-linejoin="round" stroke-width="2"/>
        </g>
      </g>
    </g>
    <text id="Powered_by" data-name="Powered by" transform="translate(2606.264 -904.308)" fill="#fff" font-size="8" font-family="Poppins-Regular, Poppins"><tspan x="0" y="0">Powered by</tspan></text>
    <g id="razr_logo" data-name="razr logo" transform="translate(2657.199 -915.308)">
      <g id="Group_78" data-name="Group 78" transform="translate(0 0)">
        <path id="Path_140" data-name="Path 140" d="M1164.072,505.155a2.077,2.077,0,1,0-2.078,2.077,2.078,2.078,0,0,0,2.078-2.077" transform="translate(-1138.318 -496.847)" fill="#e50019"/>
        <path id="Path_141" data-name="Path 141" d="M980.6,505.155a2.077,2.077,0,1,0-2.077,2.077,2.078,2.078,0,0,0,2.077-2.077" transform="translate(-976.451 -496.847)" fill="#e50019"/>
        <path id="Path_142" data-name="Path 142" d="M1072.338,458.463a2.066,2.066,0,0,0-.609-1.468c-1.164-1.164-1.164-2.13,0-3.294a2.076,2.076,0,1,0-2.937,0c1.164,1.164,1.164,2.13,0,3.294a2.077,2.077,0,0,0,0,2.937c1.164,1.165,1.164,2.129,0,3.294a2.077,2.077,0,1,0,2.937,0c-1.164-1.165-1.164-2.129,0-3.294a2.066,2.066,0,0,0,.609-1.468" transform="translate(-1057.384 -450.155)" fill="#e50019"/>
        <path id="Path_143" data-name="Path 143" d="M1025.861,480.168a2.077,2.077,0,1,0-2.938,0c1.165,1.164,1.165,2.129,0,3.294a2.077,2.077,0,1,0,2.938,0c-1.165-1.165-1.165-2.129,0-3.294" transform="translate(-1016.915 -473.507)" fill="#e50019"/>
        <path id="Path_144" data-name="Path 144" d="M1117.593,480.168a2.077,2.077,0,1,0-2.938,0c1.165,1.164,1.165,2.129,0,3.294a2.078,2.078,0,1,0,2.938,0c-1.164-1.165-1.164-2.129,0-3.294" transform="translate(-1097.848 -473.507)" fill="#e50019"/>
      </g>
      <g id="Group_79" data-name="Group 79" transform="translate(29.22 4.796)">
        <path id="Path_145" data-name="Path 145" d="M1224.638,491.885a.21.21,0,0,1,.048-.143.177.177,0,0,1,.141-.053h2.76a2.071,2.071,0,0,1,.825.165,2.149,2.149,0,0,1,.671.447,2.083,2.083,0,0,1,.45.66,2,2,0,0,1,.165.805,1.926,1.926,0,0,1-.079.553,2.1,2.1,0,0,1-.555.906,2.2,2.2,0,0,1-.426.318l1.1,2.068c.02.04.046.087.077.14a.3.3,0,0,1,.046.141.125.125,0,0,1-.045.1.182.182,0,0,1-.122.037h-1.465a.216.216,0,0,1-.13-.043.2.2,0,0,1-.075-.115l-1.038-1.953h-.692v1.927q0,.184-.2.184h-1.269a.2.2,0,0,1-.137-.045.178.178,0,0,1-.052-.139Zm3.346,1.9a.742.742,0,0,0-.047-.257.818.818,0,0,0-.133-.235.775.775,0,0,0-.205-.179.688.688,0,0,0-.265-.093l-.224-.015c-.07,0-.146-.006-.229-.006h-.59v1.568h.786c.051,0,.1,0,.137,0l.132-.012a.69.69,0,0,0,.269-.088.721.721,0,0,0,.2-.175.776.776,0,0,0,.124-.235.835.835,0,0,0,.043-.267" transform="translate(-1224.638 -491.595)" fill="#fff"/>
        <path id="Path_146" data-name="Path 146" d="M1276.765,512.286a.3.3,0,0,1-.021.111.268.268,0,0,1-.157.132.474.474,0,0,1-.089.01h-.673a.316.316,0,0,1-.116-.018.179.179,0,0,1-.072-.054.33.33,0,0,1-.046-.084c-.012-.033-.025-.068-.038-.107l-.1-.256-.2.2a1.911,1.911,0,0,1-.242.193,1.422,1.422,0,0,1-.285.149.9.9,0,0,1-.329.06,2.235,2.235,0,0,1-.6-.079,2.208,2.208,0,0,1-.983-.572,2.239,2.239,0,0,1-.347-.453,2.214,2.214,0,0,1-.224-.538,2.3,2.3,0,0,1-.079-.6,2.239,2.239,0,0,1,.65-1.594,2.17,2.17,0,0,1,.708-.475,2.2,2.2,0,0,1,.871-.173,1.164,1.164,0,0,1,.391.063,1.384,1.384,0,0,1,.323.166,1.584,1.584,0,0,1,.263.233,2.4,2.4,0,0,1,.21.263l.133-.413c.023-.057.042-.1.057-.138a.234.234,0,0,1,.048-.079.13.13,0,0,1,.063-.034.545.545,0,0,1,.106-.008h.509a.48.48,0,0,1,.089.01.162.162,0,0,1,.089.048.216.216,0,0,1,.068.085.275.275,0,0,1,.021.109Zm-3.367-1.914a1.235,1.235,0,0,0,.071.422,1,1,0,0,0,.2.341.945.945,0,0,0,.718.311,1.086,1.086,0,0,0,.425-.083,1.113,1.113,0,0,0,.342-.227,1.029,1.029,0,0,0,.227-.341,1.109,1.109,0,0,0-.227-1.188,1.078,1.078,0,0,0-.342-.238,1.049,1.049,0,0,0-.425-.088.942.942,0,0,0-.406.088.954.954,0,0,0-.313.238,1.066,1.066,0,0,0-.2.349,1.225,1.225,0,0,0-.071.416" transform="translate(-1266.571 -506.099)" fill="#fff"/>
        <path id="Path_147" data-name="Path 147" d="M1317.1,508.833a.26.26,0,0,1,.074-.193.273.273,0,0,1,.2-.074h2.878a.3.3,0,0,1,.193.066.242.242,0,0,1,.083.2v.6a.5.5,0,0,1-.005.072.171.171,0,0,1-.035.082l-1.884,2.236h1.689a.28.28,0,0,1,.2.066.269.269,0,0,1,.074.211v.536a.294.294,0,0,1-.019.1.3.3,0,0,1-.054.1.279.279,0,0,1-.085.068.233.233,0,0,1-.111.026h-3.015a.221.221,0,0,1-.1-.026.333.333,0,0,1-.089-.067.3.3,0,0,1-.061-.094.282.282,0,0,1-.022-.108v-.471a.528.528,0,0,1,.009-.093.2.2,0,0,1,.049-.091q.229-.254.48-.549t.508-.6l.509-.6q.253-.3.483-.554h-1.665a.25.25,0,0,1-.274-.284Z" transform="translate(-1306.124 -506.486)" fill="#fff"/>
        <path id="Path_148" data-name="Path 148" d="M1353.06,508.45a.257.257,0,0,1,.026-.111.261.261,0,0,1,.063-.084.333.333,0,0,1,.185-.058h.517a.187.187,0,0,1,.1.024.2.2,0,0,1,.063.062.414.414,0,0,1,.044.085.614.614,0,0,0,.046.1c0,.009.013.032.027.067l.045.116c.015.043.031.083.046.121s.025.063.029.073c.068-.075.133-.154.2-.238a2.171,2.171,0,0,1,.2-.23.973.973,0,0,1,.236-.174.648.648,0,0,1,.307-.068,1.792,1.792,0,0,1,.33.027,1.557,1.557,0,0,1,.275.08,1.615,1.615,0,0,1,.258.135c.085.054.178.118.278.191q.236.127.089.376l-.311.53a.276.276,0,0,1-.167.126.317.317,0,0,1-.216-.031,1.107,1.107,0,0,0-.3-.214.828.828,0,0,0-.347-.07.665.665,0,0,0-.234.037.636.636,0,0,0-.183.106.954.954,0,0,0-.154.163c-.048.065-.1.135-.143.213v2.475a.275.275,0,0,1-.063.2.28.28,0,0,1-.21.067h-.769a.234.234,0,0,1-.267-.263Z" transform="translate(-1337.941 -506.099)" fill="#fff"/>
        <path id="Path_149" data-name="Path 149" d="M1391.825,491.444a.272.272,0,0,1,.107.111.179.179,0,0,1-.013.163l-.722,1.025a.175.175,0,0,1-.1.084.2.2,0,0,1-.13-.037,1.632,1.632,0,0,0-.461-.244,1.665,1.665,0,0,0-.534-.086,1.557,1.557,0,0,0-1.154.5,1.712,1.712,0,0,0-.333.539,1.806,1.806,0,0,0-.119.659,1.786,1.786,0,0,0,.119.656,1.673,1.673,0,0,0,.333.534,1.559,1.559,0,0,0,1.154.494,1.662,1.662,0,0,0,1-.333.193.193,0,0,1,.128-.038.171.171,0,0,1,.1.077l.731,1.051a.168.168,0,0,1,.013.158.281.281,0,0,1-.107.107,3.367,3.367,0,0,1-.866.416,3.188,3.188,0,0,1-.976.148,3.226,3.226,0,0,1-.87-.116,3.188,3.188,0,0,1-.78-.328,3.309,3.309,0,0,1-1.17-1.169,3.145,3.145,0,0,1-.329-.778,3.332,3.332,0,0,1,0-1.739,3.28,3.28,0,0,1,.839-1.446,3.192,3.192,0,0,1,.66-.511,3.375,3.375,0,0,1,.78-.329,3.308,3.308,0,0,1,1.838.026,3.329,3.329,0,0,1,.856.412" transform="translate(-1367.652 -490.889)" fill="#fff"/>
        <path id="Path_150" data-name="Path 150" d="M1436.482,510.372a2.248,2.248,0,0,1,.081-.6,2.2,2.2,0,0,1,.574-.99,2.143,2.143,0,0,1,.453-.347,2.267,2.267,0,0,1,.538-.222,2.294,2.294,0,0,1,.6-.079,2.23,2.23,0,0,1,1.585.648,2.258,2.258,0,0,1,.479.711,2.3,2.3,0,0,1,.095,1.487,2.286,2.286,0,0,1-.225.538,2.226,2.226,0,0,1-1.337,1.025,2.234,2.234,0,0,1-.6.079,2.292,2.292,0,0,1-.6-.079,2.212,2.212,0,0,1-1.34-1.025,2.27,2.27,0,0,1-.225-.538,2.241,2.241,0,0,1-.081-.6m1.249,0a1.238,1.238,0,0,0,.07.422,1.023,1.023,0,0,0,.2.341.945.945,0,0,0,.311.227.991.991,0,0,0,.412.083.952.952,0,0,0,.4-.083.932.932,0,0,0,.3-.227,1.014,1.014,0,0,0,.191-.341,1.348,1.348,0,0,0,0-.839,1.085,1.085,0,0,0-.191-.349.91.91,0,0,0-.3-.238.921.921,0,0,0-.4-.088.958.958,0,0,0-.412.088.922.922,0,0,0-.311.238,1.1,1.1,0,0,0-.2.349,1.227,1.227,0,0,0-.07.416" transform="translate(-1411.541 -506.099)" fill="#fff"/>
        <path id="Path_151" data-name="Path 151" d="M1480.388,508.45a.257.257,0,0,1,.026-.111.234.234,0,0,1,.063-.084.329.329,0,0,1,.185-.058h.516a.185.185,0,0,1,.1.024.2.2,0,0,1,.063.062.415.415,0,0,1,.045.085.689.689,0,0,0,.047.1l.027.067c.014.035.028.074.045.116s.03.083.046.121.024.063.029.073a3.016,3.016,0,0,0,.2-.238,2.227,2.227,0,0,1,.2-.23.994.994,0,0,1,.236-.174.649.649,0,0,1,.307-.068,1.788,1.788,0,0,1,.33.027,1.569,1.569,0,0,1,.275.08,1.668,1.668,0,0,1,.258.135c.085.054.178.118.278.191.157.084.186.21.089.376l-.311.53a.276.276,0,0,1-.168.126.315.315,0,0,1-.215-.031,1.116,1.116,0,0,0-.3-.214.828.828,0,0,0-.347-.07.671.671,0,0,0-.234.037.646.646,0,0,0-.183.106.98.98,0,0,0-.153.163c-.049.065-.1.135-.144.213v2.475a.232.232,0,0,1-.273.263h-.769a.234.234,0,0,1-.267-.263Z" transform="translate(-1450.278 -506.099)" fill="#fff"/>
        <path id="Path_152" data-name="Path 152" d="M1513.9,508.239a.2.2,0,0,1,.092-.048.457.457,0,0,1,.092-.01h.516a.245.245,0,0,1,.107.021.183.183,0,0,1,.07.056.379.379,0,0,1,.047.082c.012.031.024.065.035.1l.144.413c.063-.082.128-.166.193-.251a1.253,1.253,0,0,1,.231-.232,1.167,1.167,0,0,1,.318-.173,1.3,1.3,0,0,1,.451-.068,2.122,2.122,0,0,1,.863.173,2.043,2.043,0,0,1,.681.475,2.167,2.167,0,0,1,.446.711,2.5,2.5,0,0,1,0,1.766,2.17,2.17,0,0,1-.446.713,2.066,2.066,0,0,1-.681.476,2.1,2.1,0,0,1-.863.175,1.23,1.23,0,0,1-.383-.053,1.134,1.134,0,0,1-.285-.138,1.323,1.323,0,0,1-.221-.188q-.1-.1-.188-.205v1.594a.257.257,0,0,1-.062.174.238.238,0,0,1-.192.072h-.783a.254.254,0,0,1-.089-.017.349.349,0,0,1-.088-.048.253.253,0,0,1-.068-.077.206.206,0,0,1-.027-.1v-5.193a.226.226,0,0,1,.025-.113.414.414,0,0,1,.064-.082m3.193,2.133a1.2,1.2,0,0,0-.072-.415,1.075,1.075,0,0,0-.2-.344.938.938,0,0,0-.711-.318,1.064,1.064,0,0,0-.408.08,1.118,1.118,0,0,0-.339.219,1.143,1.143,0,0,0-.236.327,1.043,1.043,0,0,0-.1.4v.051a1.083,1.083,0,0,0,.319.767,1.093,1.093,0,0,0,.345.231,1.05,1.05,0,0,0,.42.085.927.927,0,0,0,.4-.085.945.945,0,0,0,.311-.231,1.034,1.034,0,0,0,.2-.344,1.233,1.233,0,0,0,.072-.424" transform="translate(-1479.763 -506.099)" fill="#fff"/>
      </g>
    </g>
  </g>
</svg>
