<svg xmlns="http://www.w3.org/2000/svg" width="71.097" height="135.28" viewBox="0 0 71.097 135.28">
  <g id="Group_18720" data-name="Group 18720" transform="translate(-1403.443 -7372.72)">
    <g id="IOS_icon" data-name="IOS icon" transform="translate(1403.443 7372.72)">
      <g id="Group_36" data-name="Group 36" transform="translate(0 0)">
        <path id="Path_81" data-name="Path 81" d="M305.1,269.587c0,5.8.009,11.607,0,17.411a28.115,28.115,0,0,1-.752,6.647,14.924,14.924,0,0,1-10.27,10.562,18.4,18.4,0,0,1-4.082.71c-1.544.09-3.091.168-4.637.17q-15.8.022-31.594,0-2.151,0-4.3-.137a17.944,17.944,0,0,1-5.54-1.1,14.9,14.9,0,0,1-8.486-8.169,16.236,16.236,0,0,1-1.044-3.92,32.961,32.961,0,0,1-.382-5.233q0-17.189.006-34.379a26.882,26.882,0,0,1,.837-6.994,14.342,14.342,0,0,1,5.241-7.753,15.169,15.169,0,0,1,7-2.99,38.666,38.666,0,0,1,6.243-.42q16.05,0,32.1,0c1.406,0,2.814.046,4.217.137a17.752,17.752,0,0,1,5.756,1.175,14.929,14.929,0,0,1,8.218,8,17.3,17.3,0,0,1,1.174,4.552,40.451,40.451,0,0,1,.3,5.831q-.007,7.946,0,15.892Zm-42.433-12.195c-.775.084-1.556.128-2.323.259a10,10,0,0,0-5.676,2.959,11.785,11.785,0,0,0-2.919,5.64,18.8,18.8,0,0,0-.35,6.078,14.61,14.61,0,0,0,1.109,4.481,10.077,10.077,0,0,0,6.307,5.873,12.679,12.679,0,0,0,6.395.341,10.005,10.005,0,0,0,5.063-2.525,11.61,11.61,0,0,0,3.329-6.083,18.6,18.6,0,0,0,.39-5.323,15.466,15.466,0,0,0-1.028-4.844,10.393,10.393,0,0,0-4.474-5.346A12.067,12.067,0,0,0,262.668,257.393Zm31.719,6.866c-.058-.391-.092-.756-.169-1.111a6.622,6.622,0,0,0-3.057-4.271,9.359,9.359,0,0,0-4.39-1.408,10.632,10.632,0,0,0-5.106.729c-2.522,1.077-4.2,2.852-4.433,5.7a5.254,5.254,0,0,0,2.088,4.893,10.263,10.263,0,0,0,3.476,1.67c1.491.427,3,.8,4.5,1.194a11.063,11.063,0,0,1,3.208,1.3,3.762,3.762,0,0,1,1.762,4.175,4.485,4.485,0,0,1-2.25,2.969,7.377,7.377,0,0,1-3.364,1,8.978,8.978,0,0,1-4.814-.876,5.166,5.166,0,0,1-2.851-3.492c-.049-.209-.078-.423-.115-.628H276.5c.061.393.1.771.18,1.139a7.076,7.076,0,0,0,3.95,4.922,10.755,10.755,0,0,0,4.659,1.1,11.989,11.989,0,0,0,5.271-.929,6.739,6.739,0,0,0,4.159-7.155,5.125,5.125,0,0,0-1.965-3.642,10.1,10.1,0,0,0-3.546-1.763c-1.576-.461-3.173-.848-4.759-1.278a10.754,10.754,0,0,1-3.142-1.3,3.421,3.421,0,0,1-1.506-4,4.168,4.168,0,0,1,2.3-2.774,7.866,7.866,0,0,1,7.341.019,4.517,4.517,0,0,1,2.475,3.215c.043.2.068.4.1.6Zm-48.92,18.614h.232c.711,0,1.42-.011,2.13.006.227.005.263-.074.263-.275q-.007-7.615,0-15.231c0-.088-.01-.176-.014-.26h-2.606C245.467,272.368,245.467,277.605,245.467,282.873Zm-.312-20.114a1.626,1.626,0,0,0,1.624,1.642,1.631,1.631,0,1,0,.018-3.262A1.613,1.613,0,0,0,245.155,262.759Z" transform="translate(-234.008 -233.996)" fill="#b7b7b7"/>
        <path id="Path_82" data-name="Path 82" d="M620.923,724.72a14.7,14.7,0,0,1-.967,5.283,8.167,8.167,0,0,1-5.072,4.966,9.468,9.468,0,0,1-4.186.379,8.042,8.042,0,0,1-3.751-1.4,8.576,8.576,0,0,1-3.032-3.963,13.592,13.592,0,0,1-.9-4.482,15.677,15.677,0,0,1,.479-4.806,9.683,9.683,0,0,1,2.129-4.071,7.888,7.888,0,0,1,5.093-2.578,9.394,9.394,0,0,1,4.344.443,7.981,7.981,0,0,1,4.489,4.024,11.663,11.663,0,0,1,1.215,4.162C620.836,723.359,620.87,724.04,620.923,724.72Z" transform="translate(-583.298 -688.353)" fill="#b7b7b7"/>
      </g>
    </g>
    <text id="IOS" transform="translate(1438 7501)" fill="#797979" font-size="19" font-family="Poppins-Medium, Poppins" font-weight="500"><tspan x="-13.642" y="0">Ios</tspan></text>
  </g>
</svg>
