<svg xmlns="http://www.w3.org/2000/svg" width="63.876" height="142" viewBox="0 0 63.876 142">
  <g id="Group_18721" data-name="Group 18721" transform="translate(-1661.49 -7366)">
    <g id="JAVA_icon" data-name="JAVA icon" transform="translate(1661.49 7366)">
      <g id="Group_38" data-name="Group 38" transform="translate(0 0)">
        <path id="Path_88" data-name="Path 88" d="M750.943,111.447c-.265-.242-.531-.482-.8-.725a67.048,67.048,0,0,1-6.866-7.024,18.854,18.854,0,0,1-3.016-4.884,7.508,7.508,0,0,1,1-7.734,25.28,25.28,0,0,1,4.211-4.374c2.182-1.8,4.411-3.54,6.6-5.326a30.959,30.959,0,0,0,5.028-4.964A13.948,13.948,0,0,0,760,70.1a14.442,14.442,0,0,0-.229-5.6c-.019-.085-.04-.171-.058-.257a.619.619,0,0,1,.007-.11c.09.1.16.172.22.25a9.553,9.553,0,0,1,1.958,5.027,13.1,13.1,0,0,1-1.84,7.673,26.691,26.691,0,0,1-5.424,6.743c-1.526,1.405-3.151,2.7-4.725,4.06a20.526,20.526,0,0,0-4.482,5.095,9.293,9.293,0,0,0-1.354,4.339,9.473,9.473,0,0,0,.84,4.15,25.3,25.3,0,0,0,2.434,4.192c.993,1.47,1.983,2.944,2.954,4.428.27.413.474.869.708,1.306Z" transform="translate(-719.014 -64.13)" fill="#b7b7b7"/>
        <path id="Path_89" data-name="Path 89" d="M478.165,1042.8a15.006,15.006,0,0,0-3.607.619c-1.076.338-2.132.746-3.174,1.175a4.2,4.2,0,0,0-1.119.732c-.529.46-.5.984.13,1.29a14.573,14.573,0,0,0,2.339.9,36.883,36.883,0,0,0,5.8,1.08q4.517.549,9.065.644c2.466.054,4.933.1,7.4.084,1.978-.009,3.958-.072,5.935-.171,2.326-.116,4.651-.262,6.971-.458a78.93,78.93,0,0,0,10.352-1.451,14.772,14.772,0,0,0,3.742-1.213,4.525,4.525,0,0,0,.851-.562,1.4,1.4,0,0,0,.267-2.15,2.3,2.3,0,0,1,1.359,1.155,1,1,0,0,1-.156,1.025,5.525,5.525,0,0,1-1,.97,14.756,14.756,0,0,1-4.028,1.838,49.024,49.024,0,0,1-7.845,1.835c-2.146.329-4.3.62-6.457.859-1.664.184-3.339.312-5.013.373-3.087.112-6.178.215-9.267.208-2.542-.005-5.089-.113-7.626-.289-2.9-.2-5.806-.483-8.7-.817-2.2-.254-4.4-.617-6.586-.989a12.028,12.028,0,0,1-2.113-.66,2.605,2.605,0,0,1-.8-.524,1.025,1.025,0,0,1-.2-1.469,5.482,5.482,0,0,1,1.159-1.176,16.346,16.346,0,0,1,4.719-2.213,20.482,20.482,0,0,1,4.622-.975,6.763,6.763,0,0,1,2.468.146C477.824,1042.659,477.993,1042.733,478.165,1042.8Z" transform="translate(-464.454 -969.14)" fill="#b7b7b7"/>
        <path id="Path_90" data-name="Path 90" d="M913.055,300.278c-.809.486-1.622.966-2.427,1.46a58.661,58.661,0,0,0-7.865,5.528,15.649,15.649,0,0,0-2.863,3.114,5.691,5.691,0,0,0-1.1,3.54,6.33,6.33,0,0,0,1.039,3.043c.8,1.257,1.654,2.482,2.508,3.7a6.317,6.317,0,0,1,1.3,4.125,6.454,6.454,0,0,1-.971,2.914,13.07,13.07,0,0,1-3.418,3.652c-.652.493-1.35.926-2.028,1.383a.532.532,0,0,1-.274.094c.136-.147.273-.293.406-.442a7.491,7.491,0,0,0,1.9-3.508,5.524,5.524,0,0,0-1.236-4.646c-.8-1.043-1.628-2.072-2.345-3.171a10.594,10.594,0,0,1-1.69-4.6,8.587,8.587,0,0,1,1.153-5.4,15.121,15.121,0,0,1,4.1-4.443,33.574,33.574,0,0,1,8.3-4.508c1.742-.675,3.535-1.22,5.3-1.823.062-.021.128-.031.192-.047C913.048,300.26,913.052,300.269,913.055,300.278Z" transform="translate(-861.767 -282.564)" fill="#b7b7b7"/>
        <path id="Path_91" data-name="Path 91" d="M712.923,963.621c-1.139.4-2.269.825-3.42,1.183a38.53,38.53,0,0,1-7.406,1.491,41.751,41.751,0,0,1-5.869.212,30.912,30.912,0,0,1-8.262-1.283,9.882,9.882,0,0,1-2.911-1.335,4.6,4.6,0,0,1-.973-.952,1.2,1.2,0,0,1,.055-1.544,2.161,2.161,0,0,1,.293-.325,8.788,8.788,0,0,1,3.29-1.579c-.207.222-.38.378-.519.561a.714.714,0,0,0,.174,1.133,3.712,3.712,0,0,0,1.692.605c1.36.183,2.723.366,4.09.47,1.554.119,3.114.207,4.671.21a42.547,42.547,0,0,0,7.093-.654c1.028-.172,2.052-.361,3.081-.529a.728.728,0,0,1,.446.054,34.516,34.516,0,0,0,4.361,2.123.779.779,0,0,1,.1.057C712.912,963.556,712.918,963.588,712.923,963.621Z" transform="translate(-667.395 -892.425)" fill="#b7b7b7"/>
        <path id="Path_92" data-name="Path 92" d="M572.291,699.376c-1.694.522-3.4,1-5.076,1.581a28.119,28.119,0,0,0-2.8,1.249,2.1,2.1,0,0,0-.568.452.583.583,0,0,0,.123,1.017,2.43,2.43,0,0,0,.74.338c.873.2,1.747.405,2.633.52a54.433,54.433,0,0,0,7.445.331q3.874-.032,7.747-.225c2.354-.117,4.708-.3,7.054-.521,3.55-.34,7.081-.832,10.6-1.432.14-.024.282-.039.463-.063-.7.354-1.362.677-2.012,1.028-.506.273-.99.585-1.488.872a1.592,1.592,0,0,1-.4.169,55.051,55.051,0,0,1-7.7,1.406c-2.382.259-4.768.512-7.159.639q-4.2.225-8.418.213c-2.162,0-4.326-.128-6.484-.277a34.825,34.825,0,0,1-7.238-1.1,8.006,8.006,0,0,1-1.621-.652c-.914-.5-.965-1.147-.088-1.709a17.58,17.58,0,0,1,2.493-1.274,30.6,30.6,0,0,1,8.077-2.277c1.223-.167,2.461-.229,3.691-.337C572.3,699.34,572.3,699.358,572.291,699.376Z" transform="translate(-550.452 -651.742)" fill="#b7b7b7"/>
        <path id="Path_93" data-name="Path 93" d="M682.633,837.412c-.56.153-1.118.315-1.682.46a60.6,60.6,0,0,1-8.872,1.627c-2.092.214-4.195.355-6.3.428-1.712.059-3.432.022-5.144-.068a31.744,31.744,0,0,1-7.913-1.273,7.776,7.776,0,0,1-2.443-1.161,2.951,2.951,0,0,1-.289-.247,1.247,1.247,0,0,1-.049-1.953,5.987,5.987,0,0,1,1.4-1.038c.766-.4,1.585-.7,2.382-1.037a1.8,1.8,0,0,1,.193-.05c-.211.234-.387.411-.541.606a2.592,2.592,0,0,0-.313.491,1.021,1.021,0,0,0,.385,1.4,3.823,3.823,0,0,0,1.754.6c1.422.164,2.845.326,4.274.414,1.789.111,3.583.216,5.374.2,1.917-.022,3.835-.157,5.747-.309a76.073,76.073,0,0,0,8.292-1.216.654.654,0,0,1,.63.164,9.971,9.971,0,0,0,2.871,1.777c.08.033.157.071.237.107C682.631,837.363,682.632,837.387,682.633,837.412Z" transform="translate(-635.638 -775.502)" fill="#b7b7b7"/>
        <path id="Path_94" data-name="Path 94" d="M621.79,1119.07c.5.072.989.155,1.486.212,1.529.175,3.056.374,4.589.5,2.04.164,4.082.327,6.127.378,2.865.072,5.733.053,8.6.046,1.169,0,2.339-.06,3.507-.127,1.672-.1,3.346-.2,5.015-.347,1.63-.144,3.257-.326,4.88-.529a76.842,76.842,0,0,0,8.564-1.548,31.535,31.535,0,0,0,6.37-2.11,22.605,22.605,0,0,0,2.276-1.365,4.909,4.909,0,0,0,.659-.618,3.721,3.721,0,0,1-.853,1.884,8.111,8.111,0,0,1-2.609,1.994,24.879,24.879,0,0,1-5.748,2.026,55.692,55.692,0,0,1-8.034,1.346c-2.609.243-5.223.45-7.839.586q-3.416.178-6.842.151c-2.476-.016-4.954-.077-7.424-.233-2.341-.148-4.678-.4-7.006-.69a21.144,21.144,0,0,1-5.135-1.219c-.2-.08-.4-.179-.6-.269C621.777,1119.115,621.784,1119.093,621.79,1119.07Z" transform="translate(-609.987 -1034.955)" fill="#b7b7b7"/>
        <path id="Path_95" data-name="Path 95" d="M1137.277,690.637a2.768,2.768,0,0,1,1.179-.924,8.767,8.767,0,0,1,6.589-.026,5.992,5.992,0,0,1,3.8,4.291,6.084,6.084,0,0,1-.936,4.718,12.429,12.429,0,0,1-4.005,3.828,28.173,28.173,0,0,1-7.013,3.093c-.482.148-.969.283-1.454.423l-.06-.082a3.276,3.276,0,0,1,.5-.407,34.116,34.116,0,0,0,4.58-2.87,15.364,15.364,0,0,0,3.918-4.061,6.464,6.464,0,0,0,1.088-3.35,4.714,4.714,0,0,0-1.878-3.914,5.591,5.591,0,0,0-5.373-.986c-.149.045-.3.083-.45.126Z" transform="translate(-1085.125 -642.247)" fill="#b7b7b7"/>
      </g>
    </g>
    <text id="JAVA" transform="translate(1693 7501)" fill="#797979" font-size="19" font-family="Poppins-Medium, Poppins" font-weight="500"><tspan x="-23.712" y="0">Java</tspan></text>
  </g>
</svg>
