<svg xmlns="http://www.w3.org/2000/svg" width="84.016" height="124.528" viewBox="0 0 84.016 124.528">
  <g id="Group_18719" data-name="Group 18719" transform="translate(-1153.461 -7383.472)">
    <g id="NODE.JS_icon" data-name="NODE.JS icon" transform="translate(1153.461 7383.472)">
      <g id="Group_34" data-name="Group 34" transform="translate(0 0)">
        <path id="Path_72" data-name="Path 72" d="M108.84,658.894c1.573-.951,3.142-1.91,4.722-2.849,1.121-.666,2.276-1.279,3.384-1.966a1.59,1.59,0,0,1,1.821-.024c2.474,1.446,4.961,2.869,7.448,4.293a1.474,1.474,0,0,1,.81,1.365c0,3.913.011,7.826,0,11.74,0,.94-.434,1.163-1.244.7-1.374-.787-2.739-1.595-4.13-2.352a1.638,1.638,0,0,1-.919-1.589c.006-1.63-.019-3.262.01-4.892a1.391,1.391,0,0,0-.775-1.41c-2.478-1.411-1.771-1.3-4.1-.032a1.491,1.491,0,0,0-.87,1.51c.039,1.653,0,3.308.019,4.961a1.478,1.478,0,0,1-.818,1.424q-2.1,1.186-4.19,2.389a.961.961,0,0,1-1.167.012Z" transform="translate(-108.84 -642.227)" fill="#b7b7b7"/>
        <path id="Path_73" data-name="Path 73" d="M971.643,446.108c0,3.679-.013,7.357.011,11.036a1.643,1.643,0,0,1-.915,1.637c-2.436,1.37-4.846,2.785-7.256,4.2a1.675,1.675,0,0,1-1.84-.012c-2.5-1.451-5-2.886-7.5-4.327a1.361,1.361,0,0,1-.719-1.268q0-4.4,0-8.8a1.329,1.329,0,0,1,.751-1.238q3.786-2.175,7.554-4.381a1.445,1.445,0,0,1,1.64,0c.47.3.97.555,1.461.822.415.225.613.078.615-.378,0-.209,0-.419,0-.628q0-5.343,0-10.687c0-1.207.377-1.428,1.437-.846,1.306.719,2.6,1.457,3.91,2.168a1.494,1.494,0,0,1,.858,1.461C971.633,438.611,971.643,442.36,971.643,446.108ZM959.8,452.924c-.412,1.294.224,1.949,1.3,2.6a2.538,2.538,0,0,0,2.967-.011,2.96,2.96,0,0,0-.045-5.095,2.41,2.41,0,0,0-2.839-.027C960.158,451.026,959.339,451.58,959.8,452.924Z" transform="translate(-909.633 -430.926)" fill="#b7b7b7"/>
        <path id="Path_74" data-name="Path 74" d="M550.2,667.112c0,1.42-.016,2.839.005,4.259a1.571,1.571,0,0,1-.9,1.516q-3.648,2.061-7.266,4.175a1.555,1.555,0,0,1-1.755-.013c-2.347-1.381-4.7-2.748-7.08-4.078a1.859,1.859,0,0,1-1.075-1.844c.042-2.7.029-5.4,0-8.1a1.644,1.644,0,0,1,.917-1.639c2.457-1.376,4.891-2.794,7.323-4.216a1.41,1.41,0,0,1,1.568-.018c2.453,1.432,4.908,2.86,7.384,4.251a1.585,1.585,0,0,1,.886,1.586C550.184,664.365,550.205,665.739,550.2,667.112Z" transform="translate(-510.187 -645.21)" fill="#b7b7b7"/>
        <path id="Path_75" data-name="Path 75" d="M1377.131,667.3c0-1.374.011-2.749,0-4.123a1.817,1.817,0,0,1,1.041-1.743c2.315-1.3,4.622-2.62,6.9-3.987a2.035,2.035,0,0,1,2.38-.062c2.348,1.429,4.748,2.773,7.129,4.149a1.325,1.325,0,0,1,.762,1.305,3.955,3.955,0,0,0,.005.907,2.268,2.268,0,0,1-1.517,2.638c-1.19.581-2.3,1.328-3.456,1.98-.852.481-1.327.252-1.2-.694a2.69,2.69,0,0,0-1.85-3.186,2.294,2.294,0,0,0-2.1-.042,2.89,2.89,0,0,0-1.946,3.414,1.772,1.772,0,0,0,.973,1.586c2.259,1.259,4.493,2.564,6.734,3.854a4.024,4.024,0,0,1,.528.342c.444.358.454.8-.027,1.075-1.577.9-3.156,1.806-4.773,2.633a1.466,1.466,0,0,1-1.171-.1c-2.549-1.408-5.067-2.874-7.6-4.3a1.56,1.56,0,0,1-.8-1.515Q1377.132,669.359,1377.131,667.3Z" transform="translate(-1311.373 -645.304)" fill="#b7b7b7"/>
        <path id="Path_76" data-name="Path 76" d="M737.345,1042.028c1.078-.881,1.491-.979,2.332-.359a2.014,2.014,0,0,0,2.631.028c1.894-1.226,3.885-2.307,5.849-3.424a1.019,1.019,0,0,0,.582-1.005q-.022-3.738,0-7.477a1.163,1.163,0,0,0-.668-1.119c-2.147-1.219-4.291-2.444-6.42-3.695a1.211,1.211,0,0,0-1.364.015c-2.153,1.256-4.328,2.474-6.462,3.762a1.393,1.393,0,0,0-.557,1.008q-.071,3.772,0,7.546a1.411,1.411,0,0,0,.53.943,8.575,8.575,0,0,0,1.635.933c1.052.485,1.688.072,1.692-1.084q.015-3.844,0-7.687c0-.47.079-.822.665-.847.6-.026.913.159.9.823-.023,1.793-.007,3.587-.007,5.38,0,.862,0,1.724,0,2.585-.009,2.016-1.308,3.079-3.209,2.433a13.808,13.808,0,0,1-3.106-1.7,1.654,1.654,0,0,1-.539-1.2c-.046-2.888-.026-5.776-.023-8.664a1.715,1.715,0,0,1,.937-1.595c2.306-1.317,4.612-2.636,6.891-4a2.391,2.391,0,0,1,2.735.006c2.291,1.389,4.62,2.714,6.947,4.04a1.874,1.874,0,0,1,.951,1.75q.037,4.122,0,8.245a2.1,2.1,0,0,1-1.175,1.86c-2.341,1.35-4.671,2.72-7.036,4.026a1.944,1.944,0,0,1-1.454.22C739.512,1043.309,738.494,1042.659,737.345,1042.028Z" transform="translate(-699.506 -992.492)" fill="#b7b7b7"/>
        <path id="Path_77" data-name="Path 77" d="M879.065,1139.16c.7.174,1.5.32,2.266.577a2.06,2.06,0,0,1,1.376,1.713c.045.258-.064.752-.2.793-.417.123-.928.262-1.249-.258a2.779,2.779,0,0,0-3.606-.94,1.021,1.021,0,0,0-.456.753c0,.2.339.512.576.567.906.208,1.832.325,2.749.491.343.062.681.153,1.016.247a1.909,1.909,0,0,1,1.593,1.8,2.256,2.256,0,0,1-1.269,2.375,5.675,5.675,0,0,1-5.657-.246,3.547,3.547,0,0,1-.938-1.476c-.151-.313-.166-.755.321-.828.43-.066,1.036-.256,1.2.362a1.522,1.522,0,0,0,1.6,1.19,12.189,12.189,0,0,0,2.28-.117.785.785,0,0,0,.754-.92,1.213,1.213,0,0,0-.771-.72c-1.062-.248-2.16-.339-3.227-.573a2.166,2.166,0,0,1-1.778-3.065,2.363,2.363,0,0,1,1.68-1.353C877.846,1139.379,878.4,1139.3,879.065,1139.16Z" transform="translate(-835.437 -1102.442)" fill="#b7b7b7"/>
        <path id="Path_78" data-name="Path 78" d="M1521.2,817.159a2.1,2.1,0,0,1-1.782,1.98,2.244,2.244,0,0,1-1.865-1.961,2.181,2.181,0,0,1,1.873-2.008A2.09,2.09,0,0,1,1521.2,817.159Z" transform="translate(-1444.517 -795.249)" fill="#b7b7b7"/>
      </g>
    </g>
    <text id="NODE.JS" transform="translate(1194 7501)" fill="#797979" font-size="19" font-family="Poppins-Medium, Poppins" font-weight="500"><tspan x="-37.934" y="0">Node.Js</tspan></text>
  </g>
</svg>
