<svg xmlns="http://www.w3.org/2000/svg" width="71.393" height="133.936" viewBox="0 0 71.393 133.936">
  <g id="Group_18716" data-name="Group 18716" transform="translate(-406 -7374.064)">
    <g id="PYTHON_icon" data-name="PYTHON icon" transform="translate(407.543 7374.063)">
      <g id="Group_26" data-name="Group 26" transform="translate(0 0)">
        <path id="Path_28" data-name="Path 28" d="M563.57,530.675c-.1.513-.19,1.027-.293,1.539a16.471,16.471,0,0,1-2.23,5.836,9.648,9.648,0,0,1-6.749,4.523,8.823,8.823,0,0,1-1.419.1q-11.9,0-23.81-.014c-.293,0-.39.081-.38.377.021.582.012,1.164,0,1.746,0,.212.075.294.289.291.534-.009,1.067,0,1.6,0l14.67,0c.441,0,.441,0,.441.446,0,2.4-.059,4.8.03,7.189a5.614,5.614,0,0,1-2.461,4.9,13.249,13.249,0,0,1-4.822,2.179,27.467,27.467,0,0,1-5.8.875c-1.763.076-3.53.141-5.292.1a28.838,28.838,0,0,1-8.731-1.382,11.683,11.683,0,0,1-4.845-2.9,6.706,6.706,0,0,1-1.935-4.4c-.015-.309.031-.62.031-.929q0-7.48,0-14.961a10.185,10.185,0,0,1,.785-4.171,7.775,7.775,0,0,1,4.1-4.022,11.72,11.72,0,0,1,4.889-1.023c5.618,0,11.235.006,16.853-.011a9.668,9.668,0,0,0,5.418-1.509,8.807,8.807,0,0,0,3.587-5.169,12.1,12.1,0,0,0,.472-3.389q-.007-3.9,0-7.8c0-.4,0-.4.4-.405,1.824,0,3.648-.01,5.472,0a7.779,7.779,0,0,1,5.289,2.166,12.889,12.889,0,0,1,3.506,5.911,23.77,23.77,0,0,1,.879,4.091,1.823,1.823,0,0,0,.057.223Q563.57,525.872,563.57,530.675Zm-22.122,21.677a3.058,3.058,0,1,0-3.043,3.066A3.047,3.047,0,0,0,541.448,552.352Z" transform="translate(-493.721 -491.019)" fill="#b7b7b7"/>
      </g>
    </g>
    <g id="Group_18715" data-name="Group 18715">
      <path id="Path_29" data-name="Path 29" d="M145.375,147.671h12.05c.437,0,.438,0,.439-.425,0-.534-.016-1.068.006-1.6.012-.3-.091-.375-.381-.374q-5.065.013-10.129,0c-2.028,0-4.056-.006-6.083.005-.285,0-.386-.068-.386-.371,0-2.639-.039-5.277-.029-7.916a4.935,4.935,0,0,1,1.533-3.423,10.22,10.22,0,0,1,3.955-2.437,24.218,24.218,0,0,1,5.691-1.281,46.823,46.823,0,0,1,6.826-.282,31.463,31.463,0,0,1,8.667,1.255,13.12,13.12,0,0,1,4.455,2.279,7.03,7.03,0,0,1,2.714,4.625,11.229,11.229,0,0,1,.03,1.423q0,7.48,0,14.961a11.156,11.156,0,0,1-.428,3.247,7.854,7.854,0,0,1-4.825,5.175,11.538,11.538,0,0,1-4.427.859q-8.3-.008-16.591,0a11.88,11.88,0,0,0-3.755.549,8.245,8.245,0,0,0-5.249,5.048,11.607,11.607,0,0,0-.83,4.346q0,3.973,0,7.946c0,.386,0,.387-.384.387-1.892,0-3.784.018-5.676,0a7.577,7.577,0,0,1-4.83-1.9,12.035,12.035,0,0,1-3.525-5.357,23.016,23.016,0,0,1-1.291-6.249c-.109-1.527-.18-3.061-.164-4.591a25.224,25.224,0,0,1,1.314-8.266,12.314,12.314,0,0,1,3.228-5.117,9.218,9.218,0,0,1,6.341-2.517c3.91-.02,7.82-.006,11.73-.006A.058.058,0,0,0,145.375,147.671ZM151.243,138a3.049,3.049,0,1,0-6.1-.023,3.049,3.049,0,0,0,6.1.023Z" transform="translate(284.783 7244.514)" fill="#b7b7b7"/>
      <text id="PYTHON" transform="translate(440 7501)" fill="#797979" font-size="19" font-family="Poppins-Medium, Poppins" font-weight="500"><tspan x="-33.107" y="0">Python</tspan></text>
    </g>
  </g>
</svg>
