<svg xmlns="http://www.w3.org/2000/svg" width="83.651" height="101.68" viewBox="0 0 83.651 101.68">
  <g id="Group_18717" data-name="Group 18717" transform="translate(-656.182 -7406.32)">
    <g id="php_icon" data-name="php icon" transform="translate(656.182 7406.32)">
      <g id="Group_37" data-name="Group 37" transform="translate(0 0)">
        <path id="Path_83" data-name="Path 83" d="M132.45,534.476v-1.835a5.723,5.723,0,0,0,.35-.961,14.146,14.146,0,0,1,4.249-7.581,31.581,31.581,0,0,1,10.277-6.586,59.326,59.326,0,0,1,15.586-4.19,80.3,80.3,0,0,1,13.493-.863c.993.038,1.983.149,2.974.224,1.449.111,2.9.166,4.347.339a68.579,68.579,0,0,1,12.785,2.7,39.516,39.516,0,0,1,13.5,6.926,17.35,17.35,0,0,1,4.741,5.684A11.688,11.688,0,0,1,216.1,533.5a11.873,11.873,0,0,1-1.244,5.078,18.42,18.42,0,0,1-5.643,6.541,38.554,38.554,0,0,1-10.952,5.7,72.433,72.433,0,0,1-23.231,3.837,84.528,84.528,0,0,1-9.047-.48,63.653,63.653,0,0,1-16.1-3.552,36.474,36.474,0,0,1-11.748-6.586,15,15,0,0,1-5.339-8.6A6.056,6.056,0,0,0,132.45,534.476ZM154.2,523.169c0,.024,0,.049,0,.074-1.494,0-2.987-.007-4.48,0-1.275.007-1.388.13-1.629,1.4-.591,3.115-1.2,6.226-1.8,9.339q-1.115,5.8-2.218,11.592c-.152.806-.021.983.773,1.01,1.109.037,2.222.034,3.331,0,.832-.028.969-.159,1.149-.986.285-1.3.543-2.617.8-3.928.233-1.191.226-1.2,1.478-1.2,1.34-.009,2.682.03,4.02-.022a10.234,10.234,0,0,0,6.232-2,10.525,10.525,0,0,0,4.166-8.894,5.908,5.908,0,0,0-4.084-5.668,6.942,6.942,0,0,0-1.889-.455C158.1,523.294,156.149,523.247,154.2,523.169Zm39.041.005c0,.023,0,.046,0,.069-1.57,0-3.139-.013-4.709,0-.973.011-1.082.122-1.312,1.075-.036.148-.064.3-.094.448q-1.457,7.478-2.914,14.957c-.366,1.874-.745,3.746-1.1,5.622-.193,1.018-.027,1.219,1.036,1.243q1.434.034,2.871,0c1.078-.026,1.215-.152,1.433-1.23.257-1.272.5-2.548.75-3.821.2-1.029.222-1.062,1.251-1.075,1.454-.018,2.911.023,4.364-.029a10.205,10.205,0,0,0,5.45-1.554,10.414,10.414,0,0,0,4.8-8.326c.266-3.906-1.873-6.5-5.751-7.126a2.873,2.873,0,0,0-.342-.042Zm-17.984,4.177v.04c.765,0,1.534-.052,2.294.013a1.438,1.438,0,0,1,1.484,1.763,17.2,17.2,0,0,1-.3,1.921c-.524,2.737-1.064,5.47-1.585,8.207-.189.993-.066,1.14.955,1.161.994.02,1.989.015,2.985,0,1.07-.014,1.218-.129,1.433-1.218q1-5.113,1.974-10.232a6.017,6.017,0,0,0,.1-1.252,3.985,3.985,0,0,0-2.836-3.892,8.3,8.3,0,0,0-2.009-.44c-1.485-.109-2.977-.128-4.466-.18-.344-.012-.689.011-1.033-.008-.772-.042-.888-.174-.8-.89.029-.226.1-.447.144-.671.226-1.162.468-2.321.665-3.487.141-.829-.035-1.059-.874-1.09-1.07-.04-2.143-.036-3.213,0-.864.025-1.013.2-1.184,1.082q-1.226,6.352-2.454,12.7c-.537,2.773-1.08,5.544-1.613,8.318-.206,1.072-.08,1.24.975,1.26q1.492.029,2.985,0c.957-.017,1.091-.145,1.275-1.1.472-2.436.938-4.872,1.415-7.307.257-1.31.545-2.615.794-3.928a.824.824,0,0,1,.941-.774C173.956,527.364,174.607,527.352,175.257,527.352Z" transform="translate(-132.45 -512.422)" fill="#b7b7b7"/>
        <path id="Path_84" data-name="Path 84" d="M479.6,792.549l.015.116c1.056-.143,2.124-.228,3.164-.445a3.9,3.9,0,0,0,2.789-2.187,8.726,8.726,0,0,0,.915-3.866,2.376,2.376,0,0,0-2.352-2.7c-1.437-.163-2.895-.147-4.342-.225-.622-.033-.882.281-.991.853q-.741,3.877-1.519,7.747c-.1.52.126.708.6.711C478.457,792.551,479.031,792.549,479.6,792.549Z" transform="translate(-458.469 -768.479)" fill="#b7b7b7"/>
        <path id="Path_85" data-name="Path 85" d="M1192.81,792.631a12.105,12.105,0,0,0,6.587-.494,3.9,3.9,0,0,0,1.808-1.849,8.63,8.63,0,0,0,.9-3.635c.012-1.839-.677-2.719-2.492-2.925-1.4-.159-2.816-.168-4.226-.192-.763-.013-.863.123-1.024.931q-.333,1.681-.655,3.365C1193.4,789.433,1193.107,791.037,1192.81,792.631Z" transform="translate(-1135.029 -768.761)" fill="#b7b7b7"/>
        <path id="Path_86" data-name="Path 86" d="M479.6,792.549c-.573,0-1.146,0-1.72,0-.475,0-.706-.191-.6-.711q.773-3.87,1.519-7.747c.11-.572.37-.886.991-.853,1.448.078,2.9.061,4.342.225a2.377,2.377,0,0,1,2.352,2.7,8.727,8.727,0,0,1-.915,3.866,3.9,3.9,0,0,1-2.789,2.187c-1.04.218-2.108.3-3.164.445Z" transform="translate(-458.469 -768.479)" fill="#b7b7b7"/>
        <path id="Path_87" data-name="Path 87" d="M1192.81,792.631c.3-1.593.594-3.2.9-4.8q.319-1.684.655-3.365c.16-.808.26-.944,1.024-.931,1.41.024,2.827.033,4.226.192,1.815.206,2.5,1.086,2.492,2.925a8.632,8.632,0,0,1-.9,3.635,3.893,3.893,0,0,1-1.808,1.849A12.1,12.1,0,0,1,1192.81,792.631Z" transform="translate(-1135.029 -768.761)" fill="#b7b7b7"/>
      </g>
    </g>
    <text id="PHP" transform="translate(697 7501)" fill="#797979" font-size="19" font-family="Poppins-Medium, Poppins" font-weight="500"><tspan x="-18.259" y="0">Php</tspan></text>
  </g>
</svg>
