<svg xmlns="http://www.w3.org/2000/svg" width="61.859" height="127.216" viewBox="0 0 61.859 127.216">
  <g id="Group_18718" data-name="Group 18718" transform="translate(-906.164 -7380.784)">
    <g id="REACT_icon" data-name="REACT icon" transform="translate(906.164 7380.784)">
      <g id="Group_35" data-name="Group 35" transform="translate(0 0)">
        <path id="Path_79" data-name="Path 79" d="M86.844,103.36h2.312a2.709,2.709,0,0,0,.29.083,12.683,12.683,0,0,1,3.4,1.16,21.384,21.384,0,0,1,2.876,1.72,33.412,33.412,0,0,1,4.13,3.406c.079.076.155.157.238.228.182.154.221.148.393-.005.794-.706,1.574-1.427,2.386-2.111a23.654,23.654,0,0,1,5.164-3.375,12.417,12.417,0,0,1,2.588-.914c.277-.061.553-.127.829-.191h2.312c.185.051.37.105.556.153a5.764,5.764,0,0,1,3.031,1.938,7.77,7.77,0,0,1,1.432,2.734,14.425,14.425,0,0,1,.587,3.627,21.533,21.533,0,0,1-.116,3.266,35.69,35.69,0,0,1-.777,4.55c-.05.214-.1.428-.147.643s-.022.232.173.3c.034.013.07.022.1.034.828.27,1.662.523,2.482.814a25.98,25.98,0,0,1,5.188,2.447,12.918,12.918,0,0,1,3.4,2.921,6.417,6.417,0,0,1,1.485,3.431.849.849,0,0,0,.045.158v.99a1.32,1.32,0,0,0-.05.213,5.251,5.251,0,0,1-.535,1.894,9.36,9.36,0,0,1-2.654,3.221,20.455,20.455,0,0,1-4.719,2.8,36.768,36.768,0,0,1-4.289,1.563c-.167.05-.334.1-.5.152a.192.192,0,0,0-.151.251c.012.054.023.108.036.161a31.363,31.363,0,0,1,.724,3.7c.126.99.234,1.984.291,2.98a17.118,17.118,0,0,1-.089,2.828,11.619,11.619,0,0,1-.843,3.4,6.71,6.71,0,0,1-1.808,2.526,5.163,5.163,0,0,1-2.753,1.287,11.957,11.957,0,0,1-2.605,0,10.525,10.525,0,0,1-3.362-1.091,21.27,21.27,0,0,1-3.233-1.927,32.448,32.448,0,0,1-3.226-2.611c-.315-.294-.627-.591-.943-.884-.173-.161-.224-.162-.394-.008-.211.191-.417.386-.628.575-.54.482-1.07.977-1.627,1.438a28.418,28.418,0,0,1-3.293,2.388,17.658,17.658,0,0,1-4.165,1.9,11.847,11.847,0,0,1-3.577.252.642.642,0,0,1-.108-.019,5.924,5.924,0,0,1-4.236-3.161,10.979,10.979,0,0,1-1.229-4.866c-.047-1-.005-2,.047-2.995a19.2,19.2,0,0,1,.253-2.266c.2-1.165.458-2.32.7-3.478.066-.321.074-.318-.246-.421-.716-.23-1.434-.454-2.146-.7a27.082,27.082,0,0,1-4.8-2.128,14.629,14.629,0,0,1-3.713-2.852,8.37,8.37,0,0,1-1.414-2.086,5.793,5.793,0,0,1-.415-3.862,7.373,7.373,0,0,1,1.832-3.278,15.216,15.216,0,0,1,4.1-3.064,33.176,33.176,0,0,1,6.324-2.532c.114-.034.229-.065.342-.1a.211.211,0,0,0,.147-.261c-.011-.063-.028-.125-.041-.188-.228-1.151-.479-2.3-.678-3.454a20.155,20.155,0,0,1-.309-3.226c0-.349.005-.7,0-1.046a13.663,13.663,0,0,1,.395-3.571,8.351,8.351,0,0,1,1.472-3.2,5.83,5.83,0,0,1,3.436-2.175C86.635,103.426,86.739,103.39,86.844,103.36Zm13.435,37.474v-.006c.605,0,1.211.013,1.816,0,.787-.021,1.574-.062,2.361-.1.411-.021.822-.055,1.233-.085a.47.47,0,0,0,.38-.236c.4-.624.827-1.235,1.213-1.869.733-1.206,1.469-2.412,2.16-3.643.672-1.2,1.287-2.43,1.93-3.646a.685.685,0,0,0,0-.7c-.417-.785-.8-1.587-1.222-2.372-.427-.8-.861-1.6-1.322-2.38-.624-1.058-1.271-2.1-1.919-3.147-.275-.444-.578-.871-.865-1.308a.4.4,0,0,0-.335-.2c-.494-.03-.986-.084-1.48-.1-.879-.032-1.759-.042-2.639-.065-.458-.012-.915-.04-1.373-.045-.247,0-.493.037-.74.044-.788.022-1.576.03-2.363.058-.714.026-1.427.079-2.141.1a.522.522,0,0,0-.471.266c-.738,1.171-1.5,2.328-2.223,3.508-1.119,1.822-2.118,3.71-3.066,5.626a.736.736,0,0,0,0,.746c.578,1.084,1.13,2.182,1.716,3.261,1.073,1.976,2.253,3.886,3.5,5.755a.736.736,0,0,0,.626.371l.247.01c.43.021.86.043,1.29.062.778.035,1.556.074,2.333.1C99.38,140.846,99.83,140.834,100.279,140.834Zm16.4-28.191a13.091,13.091,0,0,0-.332-3.137,5.758,5.758,0,0,0-1.005-2.241,3.128,3.128,0,0,0-2-1.206,5.462,5.462,0,0,0-2.473.205,12.84,12.84,0,0,0-2.915,1.275,22.863,22.863,0,0,0-3.242,2.267c-.78.652-1.534,1.335-2.294,2.01-.243.216-.236.278-.019.515.18.2.362.389.535.591.579.675,1.176,1.335,1.725,2.033.878,1.117,1.725,2.258,2.581,3.392a.581.581,0,0,0,.431.253c.884.093,1.769.178,2.65.3q2.509.333,4.983.876c.306.067.358.042.427-.256.13-.563.254-1.127.37-1.692A26.949,26.949,0,0,0,116.68,112.643ZM72.039,130.921a3.7,3.7,0,0,0,.481,1.661A7.917,7.917,0,0,0,74.813,135a18.2,18.2,0,0,0,3.211,1.849,33.414,33.414,0,0,0,4.587,1.694c.433.126.427.12.58-.31.462-1.3.9-2.616,1.4-3.906.415-1.077.894-2.129,1.356-3.188a.559.559,0,0,0-.005-.522c-.092-.179-.169-.366-.252-.55a64.148,64.148,0,0,1-2.526-6.567c-.127-.391-.127-.393-.514-.277a37.148,37.148,0,0,0-3.785,1.334,20.138,20.138,0,0,0-3.954,2.148,8.333,8.333,0,0,0-2.244,2.239A3.741,3.741,0,0,0,72.039,130.921ZM83.9,112.632c.01.192.018.384.03.576.041.667.043,1.34.134,2,.151,1.1.354,2.189.547,3.281.064.361.159.716.251,1.071.06.232.118.262.356.222.081-.014.162-.032.243-.048.747-.146,1.492-.3,2.241-.435,1.733-.308,3.476-.549,5.231-.7a.464.464,0,0,0,.367-.206c.179-.255.364-.506.548-.758a64.969,64.969,0,0,1,4.394-5.388c.145-.159.149-.185-.008-.338-.256-.249-.522-.488-.782-.733a28.628,28.628,0,0,0-2.842-2.34,17.38,17.38,0,0,0-4.213-2.351A7.008,7.008,0,0,0,87.841,106a3.242,3.242,0,0,0-2.783,1.5,5.844,5.844,0,0,0-.735,1.652A12.854,12.854,0,0,0,83.9,112.632Zm44.617,18.181a3.057,3.057,0,0,0-.349-1.408,6.682,6.682,0,0,0-1.739-2.107,13.453,13.453,0,0,0-2.53-1.7,30.359,30.359,0,0,0-5.917-2.361c-.426-.124-.423-.211-.589.308a61.609,61.609,0,0,1-2.742,7.045.591.591,0,0,0,.01.6,3.4,3.4,0,0,1,.155.352,63.825,63.825,0,0,1,2.351,5.989c.093.278.183.558.278.835s.127.287.4.21c.292-.081.581-.17.869-.262a31.827,31.827,0,0,0,3.627-1.369,18.9,18.9,0,0,0,3.636-2.1,7.575,7.575,0,0,0,2.086-2.274A3.3,3.3,0,0,0,128.512,130.813Zm-40.3,24.953a5.748,5.748,0,0,0,1.374-.221,12.915,12.915,0,0,0,3.188-1.4,31.175,31.175,0,0,0,5.452-4.251c.177-.166.175-.209.018-.383-.331-.367-.676-.724-.99-1.1-.881-1.066-1.76-2.135-2.621-3.218-.45-.566-.865-1.162-1.29-1.748a.533.533,0,0,0-.4-.252c-.429-.041-.855-.1-1.284-.144-1.532-.165-3.054-.395-4.568-.68-.631-.119-1.258-.253-1.888-.376-.239-.046-.268-.024-.335.2-.018.061-.032.124-.048.187a29.985,29.985,0,0,0-.658,3.4q-.148,1.13-.228,2.268c-.035.51,0,1.025-.011,1.537a10.707,10.707,0,0,0,.116,1.7,7.609,7.609,0,0,0,.863,2.736A3.386,3.386,0,0,0,88.211,155.766Zm28.469-6.357a24.616,24.616,0,0,0-.22-3.313,32.756,32.756,0,0,0-.747-3.886c-.063-.25-.1-.27-.345-.221-.593.12-1.183.256-1.779.358-1.1.188-2.206.368-3.312.527-.87.125-1.745.217-2.62.313a.558.558,0,0,0-.426.252q-.717.991-1.455,1.968c-1.066,1.413-2.212,2.759-3.392,4.076-.188.21-.194.233,0,.424.343.331.686.662,1.043.977a31.887,31.887,0,0,0,2.743,2.2,17.187,17.187,0,0,0,4.117,2.24,6.774,6.774,0,0,0,2.613.433,3.224,3.224,0,0,0,2.586-1.449,5.992,5.992,0,0,0,.91-2.254A12.966,12.966,0,0,0,116.68,149.409ZM103.831,118.3c-.078-.122-.118-.2-.172-.267-.761-.94-1.519-1.882-2.289-2.816-.291-.353-.6-.691-.914-1.026-.156-.167-.2-.157-.351.012-.447.51-.905,1.01-1.338,1.532-.631.762-1.244,1.539-1.863,2.312-.054.067-.094.146-.169.266.19,0,.325,0,.459,0,.256-.011.512-.036.768-.039.559-.007,1.119,0,1.678-.007.247,0,.494-.041.74-.039.485.005.97.027,1.455.042.549.017,1.1.035,1.648.05C103.58,118.324,103.676,118.312,103.831,118.3ZM87.584,134.175c-.039.075-.077.136-.1.2-.233.578-.478,1.152-.692,1.738q-.511,1.395-.987,2.8c-.137.4-.121.416.294.5,1.606.343,3.224.621,4.854.821a1.68,1.68,0,0,0,.223-.009c-1.234-1.953-2.369-3.909-3.428-5.91a.706.706,0,0,0-.077-.113C87.657,134.2,87.635,134.2,87.584,134.175Zm0-6.559.074.01c.276-.513.547-1.029.828-1.539s.562-1.009.851-1.508.6-1.008.895-1.516.636-.972.92-1.526a2.875,2.875,0,0,0-.289,0c-.227.026-.456.052-.681.092q-2.1.371-4.195.751c-.287.053-.307.1-.22.372q.7,2.187,1.576,4.312C87.414,127.252,87.5,127.434,87.579,127.617Zm25.416,6.538-.068-.008c-1.07,2.015-2.192,4-3.422,5.921a.358.358,0,0,0-.04.1c0,.015.006.035.015.074a1.393,1.393,0,0,0,.177,0c.364-.046.73-.081,1.09-.145q1.9-.336,3.788-.689c.382-.071.379-.079.261-.445-.5-1.555-1.077-3.081-1.7-4.591C113.069,134.3,113.03,134.227,112.995,134.155Zm-.085-6.543.074.006c.052-.1.111-.2.155-.311.6-1.477,1.17-2.967,1.649-4.49.119-.379.122-.376-.275-.459q-2.355-.5-4.742-.813a2.186,2.186,0,0,0-.282,0l-.045.063Q111.306,124.535,112.91,127.612ZM96.782,143.507a1.647,1.647,0,0,0,.1.183c.239.313.472.633.724.935q1.181,1.413,2.376,2.815a3.993,3.993,0,0,0,.3.291,35.827,35.827,0,0,0,3.486-4.228,21.079,21.079,0,0,0-2.3.03q-1.169-.007-2.339,0A20.7,20.7,0,0,0,96.782,143.507Z" transform="translate(-69.347 -103.36)" fill="#b7b7b7"/>
        <path id="Path_80" data-name="Path 80" d="M791.706,724.719a5.5,5.5,0,1,1-5.461-5.52A5.51,5.51,0,0,1,791.706,724.719Z" transform="translate(-755.271 -697.187)" fill="#b7b7b7"/>
      </g>
    </g>
    <text id="REACT" transform="translate(935 7501)" fill="#797979" font-size="19" font-family="Poppins-Medium, Poppins" font-weight="500"><tspan x="-27.541" y="0">React</tspan></text>
  </g>
</svg>
