<svg xmlns="http://www.w3.org/2000/svg" width="55.796" height="125.872" viewBox="0 0 55.796 125.872">
  <g id="Group_18714" data-name="Group 18714" transform="translate(-171 -7382.128)">
    <g id="RUBY_icon" data-name="RUBY icon" transform="translate(171 7382.128)">
      <g id="Group_25" data-name="Group 25" transform="translate(0 0)">
        <path id="Path_14" data-name="Path 14" d="M352.494,295.292l-12.47-20.748-24.349,15.7Zm3.712-43.72a3.639,3.639,0,0,0-.584.478c-4.581,6.88-9.183,13.747-13.678,20.682a2.749,2.749,0,0,0,.117,2.372c3.459,5.882,7.019,11.7,10.554,17.54.35.578.722,1.142,1.083,1.713l.357-.144C354.769,280.074,355.481,265.936,356.206,251.572Zm-22.3-5.235c-2.382-1.647-4.426-1.5-7.013-.2-6.234,3.144-11.263,7.725-16.064,12.572-2.53,2.555-4.483,5.68-6.625,8.453,2.4,3.1,2.4,3.1,5.429,1.6,1.611-.8,3.25-1.541,4.829-2.395A24.546,24.546,0,0,0,318.9,263.7c3.091-2.658,5.875-5.685,9.046-8.237C331.01,252.993,332.191,249.506,333.9,246.337Zm-14.587,20.756-5.178,21.893L338.461,273.3Zm20.885,4.725L353.854,251.3l-20.665,3.467Zm-1.777-.262L331.479,254.7,319.7,265.469Zm-38.013,17.99h12.273l-5.915-15.217Zm17.176-22.652-9.941,5.212,5.17,13.282.353-.057C314.6,279.351,316.034,273.37,317.586,266.893Zm15.1-13.844,18.006-2.71c-4.419-1.448-8.8-2.613-13.211-3.686-.535-.13-1.525.046-1.738.411C334.674,248.9,333.787,250.853,332.691,253.049Zm23.369-3.226c-.487-1.391-.851-2.443-1.223-3.492-1.431-4.033-1.437-4.053-5.486-3.178-3.01.65-6.006,1.361-9.008,2.044l.016.307ZM340.11,295.3c-12.164-1.321-24.157-4.909-36.769-3.389Zm-36.743-25.858-2.948,14.617c1.678-3.03,3.012-6.148,4.359-9.261C306.071,271.807,306.077,271.809,303.367,269.442Zm30.25-25.828c3.241,1.1,6.107-.568,9.11-1.234Z" transform="translate(-300.41 -242.38)" fill="#b7b7b7"/>
        <path id="Path_15" data-name="Path 15" d="M654.529,931.708l-36.819-5.047,24.349-15.7Z" transform="translate(-602.445 -878.796)" fill="#b7b7b7"/>
        <path id="Path_16" data-name="Path 16" d="M1173.7,433.45c-.724,14.364-1.437,28.5-2.149,42.641l-.357.144c-.362-.571-.733-1.135-1.083-1.713-3.535-5.837-7.095-11.659-10.554-17.54a2.749,2.749,0,0,1-.117-2.372c4.495-6.936,9.1-13.8,13.678-20.682A3.524,3.524,0,0,1,1173.7,433.45Z" transform="translate(-1117.905 -424.258)" fill="#b7b7b7"/>
        <path id="Path_17" data-name="Path 17" d="M408.892,300.789c-1.711,3.168-2.892,6.656-5.961,9.126-3.171,2.552-5.954,5.579-9.046,8.237a24.531,24.531,0,0,1-4.437,2.676c-1.58.854-3.219,1.6-4.83,2.395-3.027,1.5-3.026,1.5-5.429-1.6,2.141-2.774,4.095-5.9,6.625-8.453,4.8-4.847,9.83-9.428,16.064-12.571C404.466,299.287,406.51,299.141,408.892,300.789Z" transform="translate(-375.4 -296.831)" fill="#b7b7b7"/>
        <path id="Path_18" data-name="Path 18" d="M590.928,756.08l19.146,6.208L585.75,777.973Z" transform="translate(-572.023 -731.367)" fill="#b7b7b7"/>
        <path id="Path_19" data-name="Path 19" d="M988.791,448.289l-7.011-17.052,20.665-3.467Z" transform="translate(-949.001 -418.851)" fill="#b7b7b7"/>
        <path id="Path_20" data-name="Path 20" d="M720.056,515.373l-18.726-6.086,11.782-10.767Z" transform="translate(-682.043 -486.198)" fill="#b7b7b7"/>
        <path id="Path_21" data-name="Path 21" d="M300.41,921.687l6.357-15.217,5.915,15.217Z" transform="translate(-300.41 -874.522)" fill="#b7b7b7"/>
        <path id="Path_22" data-name="Path 22" d="M460.76,751.93l-4.417,18.438-.353.057-5.17-13.282Z" transform="translate(-443.584 -727.417)" fill="#b7b7b7"/>
        <path id="Path_23" data-name="Path 23" d="M971.43,336.75c1.1-2.2,1.983-4.145,3.057-5.986.213-.365,1.2-.541,1.738-.411,4.408,1.073,8.792,2.238,13.211,3.686Z" transform="translate(-939.149 -326.081)" fill="#b7b7b7"/>
        <path id="Path_24" data-name="Path 24" d="M1146.217,255.982l-15.7-4.319q-.008-.154-.016-.307c3-.684,6-1.394,9.008-2.044,4.049-.875,4.055-.855,5.486,3.178C1145.366,253.54,1145.73,254.592,1146.217,255.982Z" transform="translate(-1090.566 -248.539)" fill="#b7b7b7"/>
        <path id="Path_25" data-name="Path 25" d="M398.1,1268.067l-36.769-3.389C373.942,1263.157,385.935,1266.745,398.1,1268.067Z" transform="translate(-358.399 -1215.146)" fill="#b7b7b7"/>
        <path id="Path_26" data-name="Path 26" d="M303.538,804.91c2.71,2.367,2.705,2.365,1.411,5.355-1.347,3.113-2.682,6.231-4.359,9.261C301.561,814.712,302.532,809.9,303.538,804.91Z" transform="translate(-300.581 -777.848)" fill="#b7b7b7"/>
        <path id="Path_27" data-name="Path 27" d="M990.68,243.614l9.11-1.234C996.788,243.047,993.92,244.719,990.68,243.614Z" transform="translate(-957.473 -242.38)" fill="#b7b7b7"/>
      </g>
    </g>
    <text id="RUBY" transform="translate(198 7501)" fill="#797979" font-size="19" font-family="Poppins-Medium, Poppins" font-weight="500"><tspan x="-24.139" y="0">Ruby</tspan></text>
  </g>
</svg>
